<?xml version="1.0" encoding="UTF-8"?>
<svg id="Layer_2" data-name="Layer 2" xmlns="http://www.w3.org/2000/svg" viewBox="0 0 241.42 242.83">
  <defs>
    <style>
      .cls-1 {
        fill: #ffcc40;
      }

      .cls-1, .cls-2, .cls-3, .cls-4 {
        stroke-width: 0px;
      }

      .cls-2 {
        fill: #f37421;
      }

      .cls-3 {
        fill: #f89729;
      }

      .cls-4 {
        fill: #d55b2a;
      }
    </style>
  </defs>
  <g id="Layer_1-2" data-name="Layer 1">
    <path class="cls-3" d="m193.58,23.6c5.12,4.12,17.94,15.13,28.89,33.36,0,0,13.66,22.72,17.22,49.64.78,5.88,1.07,12.02,1.09,12.48,0,0,.62,13.67-1.02,25.59-4.52,32.8-26.84,57.66-26.84,57.66-17.13,19.08-36.39,26.72-47.25,30.88-12.54,4.81-33.99,13.03-60.99,8.11-19.3-3.52-32.71-12.16-42.58-18.53-7.6-4.9-23.31-15.23-37.18-34.22-5.61-7.67-27.26-37.31-24.07-75.64,1.46-17.51,7.63-31.21,10.29-37,1.4-3.05,7.07-15.03,18.16-28.3,4.51-5.4,11.67-13.11,21.75-20.8,8.9-6.79,25.52-19.19,50.92-24.29,4.82-.97,20.42-3.78,40.38-.94,6.87.98,17.37,2.55,29.84,8.35,10.3,4.79,17.12,10.22,21.4,13.66Z"/>
    <path class="cls-1" d="m2.16,108.32c19.97-15.11,40.42-30.14,63.69-39.4,23.27-9.26,50.01-12.27,73.28-3,4.14,1.65,8.15,3.67,12.43,4.92,3.56,1.03,7.26,1.51,10.94,1.99,6.49.84,13,1.67,19.53,2.03,16.35.88,32.87-1.32,48.42-6.45,1.62,9.83,5.62,19.08,8.33,28.66,2.71,9.58,4.07,20.06.45,29.34-16.22-7.84-33.83-12.78-51.76-14.53-11.66-1.13-23.44-.93-35-2.8-10.01-1.62-19.71-4.76-29.37-7.83-8.72-2.77-17.6-5.52-26.74-5.76-9.35-.24-18.54,2.14-27.59,4.51-7.58,1.99-15.17,3.97-22.75,5.96-7.05,1.85-14.2,3.73-20.49,7.41-8.44,4.94-15.73,13.19-25.5,13.67.38-5.56.77-11.12,1.15-16.68"/>
    <path class="cls-1" d="m18.55,172.64c1.58,4.28,3.84,8.32,6.68,11.89.63.79,1.31,1.58,2.21,2.03,1.37.69,2.99.5,4.51.3,17.46-2.36,35.04-4.62,52.63-3.8,36.46,1.68,72.12,17.05,98.38,42.4,5.15-4.74,11.09-8.63,17.49-11.46-22.18-.23-42.63-11.28-62.03-22.04-4.91-2.73-9.84-5.46-14.43-8.7-6.35-4.48-12.04-9.91-18.81-13.72-13.72-7.72-30.25-7.99-46-8.05-4.94-.02-9.91-.04-14.76.85-4.27.78-8.38,2.24-12.46,3.7-4.69,1.67-9.39,3.34-14.08,5.02"/>
    <path class="cls-4" d="m29.29,47.63c19.75-19.21,29.89-29.08,48.45-37.28,9.85-4.35,17.93-6.41,21.62-7.26,5.96-1.38,17.13-3.87,31.58-2.85,7.57.53,13,1.61,23.71,4.42,5.27,1.38,10.58,2.78,15.53,5.04,4.11,1.88,7.93,4.33,11.61,6.95,6.54,4.65,12.69,9.86,18.36,15.54-14.48-.05-28.61-4.23-43.01-5.68-5.2-.52-29.43-.63-64.86,7.9-39.46,9.5-66.52,23.85-68.43,20.18-.49-.94.94-2.59,5.44-6.96Z"/>
    <path class="cls-2" d="m5.5,128.58c22.86-5.9,45.79-11.81,69.2-14.82,5.74-.74,11.52-1.3,17.31-1.32,22.4-.05,43.97,8.09,64.43,17.19,14.57,6.48,28.89,13.51,42.93,21.07,10.85,5.84,21.72,12.07,33.76,14.72.6.13,1.29.32,1.54.89.25.6-.14,1.26-.52,1.79-1.73,2.41-3.46,4.82-5.19,7.23-.51.71-1.05,1.45-1.81,1.88-.98.55-2.16.51-3.28.46-37.65-1.87-74.97-10.27-109.79-24.72-7.09-2.94-14.09-6.14-21.4-8.51-7.52-2.44-15.3-3.99-23.08-5.36-17.29-3.05-35.38-5.2-52.16-.05-3.95,1.21-8.07,3.07-10.04,6.7-.35.65-.72,1.42-1.44,1.57-1.14.23-1.81-1.22-2.03-2.36-.78-4.12-1.24-8.3-1.39-12.49"/>
    <path class="cls-4" d="m55.39,217.74c-.37,1.35,3.92,3.81,12.5,8.72,9.1,5.21,14.25,8.16,22.14,10.93,10.04,3.52,18.37,4.59,21.9,4.95,16.12,1.66,29.81-1.32,39.1-4.35-6.53-5.34-13.38-10.29-20.5-14.81-4.7-2.98-7.27-4.29-10.9-5.41-9.32-2.87-16.44-.57-24.24.7-23,3.72-39.17-3.68-39.98-.74Z"/>
  </g>
</svg>