<?xml version="1.0" encoding="UTF-8"?>
<svg id="Layer_2" data-name="Layer 2" xmlns="http://www.w3.org/2000/svg" viewBox="0 0 261.73 266.87">
  <defs>
    <style>
      .cls-1 {
        fill: #3a708c;
      }

      .cls-1, .cls-2 {
        stroke-width: 0px;
      }

      .cls-2 {
        fill: #899ccf;
      }
    </style>
  </defs>
  <g id="Layer_1-2" data-name="Layer 1">
    <path class="cls-2" d="m211.65,24.61c5.52,4.46,19.32,16.4,30.99,36.29,0,0,14.55,24.8,18.04,54.37.76,6.46.99,13.21,1,13.72,0,0,.48,15.03-1.48,28.17-5.39,36.15-30.06,63.83-30.06,63.83-18.93,21.24-40.01,29.92-51.9,34.66-13.72,5.47-37.2,14.83-66.54,9.8-20.97-3.6-35.44-12.92-46.11-19.78-8.21-5.28-25.17-16.43-40-37.12C19.6,200.18-3.56,167.88.47,125.65c1.84-19.28,8.75-34.45,11.74-40.86,1.57-3.38,7.92-16.64,20.18-31.4,4.99-6,12.9-14.59,23.98-23.2,9.79-7.6,28.07-21.48,55.8-27.46,5.26-1.13,22.3-4.45,43.99-1.62,7.47.98,18.88,2.55,32.38,8.76,11.14,5.12,18.5,11,23.11,14.73Z"/>
    <path class="cls-1" d="m57.48,137.57c12.14,3.02,22.88,4.38,58.08,11.11,6.22,1.19,12.45,2.38,18.59,3.93,38.97,9.8,74.04,34.36,96.58,67.62-4.72,5.81-12.09,13.49-22.76,20.18-6.86,4.3-13.36,7.12-18.76,9-1.15-1.16-2.85-2.85-4.93-4.88-16.23-15.85-43.96-42.47-84.5-65.47-14.79-8.39-29.95-16.67-46.55-20.38-20.15-4.5-41.68-3.46-43.99-3.35-3.01.15-5.51.35-7.28.51C.82,149.99-.1,142.63.01,134.12c.12-9.15,1.42-16.97,2.87-23.06,21.84,16.13,40.95,23.12,54.59,26.51Z"/>
    <path class="cls-1" d="m32.59,88.2c-.36,4.96-.71,10.02.49,14.86s4.2,9.49,8.81,11.37c2.13.87,4.46,1.11,6.76,1.25,3.96.24,7.93.21,11.89.18,6.09-.04,12.18-.08,18.28-.13,2.71-.02,5.46-.04,8.07-.76s5.13-2.21,6.49-4.55c.87-1.49,1.22-3.23,1.32-4.95.15-2.5-.24-5.11-1.62-7.2-1.15-1.75-2.89-3-4.63-4.16-11.59-7.72-24.91-12.83-38.69-14.84-3.37-.49-6.89-.79-10.13.29s-6.12,3.85-6.35,7.25"/>
    <path class="cls-1" d="m33.33,52.26c43.08,5.37,72.04,19,88.67,28.68,0,0,26.11,14.4,67.16,50.28l11.73,10.25c4.95,4.33,9.91,8.66,14.47,13.41,5.14,5.36,9.74,11.22,14.32,17.06,5.94,7.58,11.88,15.15,17.83,22.73,1.88-4.02,3.75-8.04,5.63-12.06-10.48-14.71-20.26-26.67-28.2-35.79-9.74-11.19-18.79-21.51-32.67-33.29-7.38-6.27-12.97-10.26-21.14-16.08-31.26-22.25-56.79-35.39-65.21-39.62-18.64-9.37-29.52-13.27-37.66-15.77-8.18-2.52-15.13-4.1-20.01-5.09-4.97,5.1-9.93,10.19-14.9,15.29Z"/>
    <path class="cls-1" d="m65.6,24.32c-.02,4.96,14.71,8.13,27.37,11.87,31.19,9.22,52.36,22.64,90.11,46.57,10.92,6.93,17.51,12.16,24.17,18.23,5.97,5.43,11.31,11.5,16.64,17.55,2.02,2.29,3.72,4.2,5.24,5.95,10.51,12.12,24.4,29.02,30.44,36.38.67-11.17,1.34-22.34,2-33.51-3.84-3.67-9.74-9.32-16.87-16.26-62.45-60.73-69.24-67.44-69.24-67.44s-14.48-14.31-38.66-30.04c-1.75-1.14-5-3.2-9.65-5.04-3.39-1.33-12.92-4.96-24.77-3.33-5.63.77-11.73,3.91-23.93,10.19-12.25,6.3-12.85,7.87-12.86,8.87Z"/>
  </g>
</svg>