<?xml version="1.0" encoding="UTF-8"?>
<svg id="Layer_2" data-name="Layer 2" xmlns="http://www.w3.org/2000/svg" viewBox="0 0 399.63 400.74">
  <defs>
    <style>
      .cls-1 {
        fill: #9ed2e3;
      }

      .cls-1, .cls-2, .cls-3, .cls-4, .cls-5 {
        stroke-width: 0px;
      }

      .cls-2 {
        fill: #5092a7;
      }

      .cls-3 {
        fill: #67a8bf;
      }

      .cls-4 {
        fill: #12536a;
      }

      .cls-5 {
        fill: #bfe7f5;
      }
    </style>
  </defs>
  <g id="Layer_1-2" data-name="Layer 1">
    <path class="cls-1" d="m112.48,174.81l-18.99-51.38c.87-3.64,3.17-11,9.5-17.91,7.61-8.31,16.57-11.04,20.17-11.94,18.47,7.18,36.93,14.35,55.4,21.53"/>
    <path class="cls-3" d="m117.3,180.19c-.8-.34-3.25-1.54-4.65-4.11-1.88-3.45-.81-7.45.18-10.31,5.53-15.94,18.45-29.31,18.45-29.31,5.6-5.79,12.49-12.8,23.7-18.45,7.53-3.8,16.89-8.52,21.71-4.7,5.69,4.51,1.4,18.04.72,20.08-2.58,7.77-7.28,12.57-13.75,19.18-5.76,5.88-10.59,9.45-16.46,13.75-14.17,10.37-23.15,16.78-29.91,13.88Z"/>
    <path class="cls-2" d="m141.7,174.81l-11.67-10.49c-.19-1.61-.32-4.21.36-7.24,1.36-6.07,5.08-9.86,11.19-15.94,4.24-4.22,6.45-6.38,10.33-8.3,4.74-2.34,9.14-2.93,11.94-3.08,3.92,3.86,7.84,7.72,11.76,11.58l-33.91,33.47Z"/>
    <path class="cls-3" d="m223.03,289.15c-3.24-3.55-1.4-10.03.18-15.56,4.18-14.66,14.11-23.91,24.42-33.29,7.93-7.21,13.31-10.45,18.09-12.66,5.45-2.52,14.76-6.82,20.44-2.71,2.36,1.71,3.23,4.24,3.62,5.43,3.27,9.97-5.05,21.3-11.76,30.21-6.58,8.73-14.16,18.8-28.22,25.33-2.93,1.36-20.89,9.7-26.77,3.26Z"/>
    <path class="cls-1" d="m257.2,285.53l-14.11-7.42c-.38-1.73-.73-4.33-.36-7.42.65-5.4,3.16-9.07,5.43-12.3,2.06-2.94,5.26-7.4,11.22-10.85,6.88-3.99,13.53-4.38,16.82-4.34,3.02,4.73,6.03,9.46,9.05,14.2-.07,2.02-.65,12.36-9.23,20.36-7.59,7.08-16.48,7.69-18.81,7.78Z"/>
    <ellipse class="cls-3" cx="271.42" cy="271.21" rx="19.54" ry="7.61" transform="translate(-112.28 271.36) rotate(-45)"/>
    <ellipse class="cls-4" cx="270.85" cy="271.78" rx="14.4" ry="5.6" transform="translate(-112.85 271.12) rotate(-45)"/>
    <path class="cls-1" d="m135.81,199.78l87.02,87.38c-.46-2.44-.88-6.05-.36-10.31.61-5.09,2.4-9.9,6.33-16.1,6.68-10.53,14.31-16.81,24.6-25.15,0,0,13.81-11.18,24.96-12.66,1.86-.25,3.62,0,3.62,0,2.83.4,4.94,1.65,6.16,2.53-29.25-29.67-58.49-59.33-87.74-89-1.28-.61-3.2-1.39-5.62-1.81-10.34-1.81-19.09,4.71-28.76,12.12,0,0-14.26,10.93-27.14,31.55-2.59,4.14-5.57,9.55-4.69,16.05.32,2.35,1.06,4.21,1.62,5.4Z"/>
    <path class="cls-5" d="m144.86,208.82l26.41,26.59c-.15-3.2-.08-7.85,1.12-13.24,3.72-16.82,15.23-26.75,25.3-35.43,9.12-7.87,17.73-15.08,30.03-15.38,3.53-.08,6.47.42,8.5.9-9.47-9.23-18.93-18.45-28.4-27.68-1.5-.29-3.7-.61-6.33-.54-7.39.18-14.79,3.22-27.33,14.34-15.12,13.41-29.06,25.77-29.65,43.91-.09,2.72.14,4.99.36,6.51Z"/>
    <path class="cls-5" d="m188.82,252.6l-10.13-9.23c-.27-3.39-.31-8.63,1.27-14.65,2.65-10.07,8.55-16.32,20.26-28.4,10.8-11.15,16.39-16.79,25.33-19.72,6.76-2.21,12.82-2.28,16.82-1.99l10.56,11.12c-1.59-.42-4-.92-6.94-.99-13.5-.31-23.38,8.86-34.55,19.54-10.45,9.99-19.53,18.91-22.07,33.29-.79,4.48-.74,8.33-.54,11.04Z"/>
    <polygon class="cls-3" points="234.04 169.75 242.57 145.87 263.9 167.7 255.39 191.7 234.04 169.75"/>
    <polygon class="cls-3" points="145.61 242.59 167.47 264.36 191.59 255.86 169.4 234.15 145.61 242.59"/>
    <polygon class="cls-5" points="228.86 132.24 267.21 171.08 399.63 38.77 361.16 0 228.86 132.24"/>
    <polygon class="cls-5" points="0 361.91 38.35 400.74 170.77 268.44 132.3 229.66 0 361.91"/>
  </g>
</svg>