<?xml version="1.0" encoding="UTF-8"?>
<svg id="Layer_2" data-name="Layer 2" xmlns="http://www.w3.org/2000/svg" viewBox="0 0 328.3 171.3">
  <defs>
    <style>
      .cls-1 {
        fill: #c35a27;
      }

      .cls-1, .cls-2, .cls-3, .cls-4 {
        stroke-width: 0px;
      }

      .cls-2 {
        fill: #ec8a23;
      }

      .cls-3 {
        fill: #f99e3b;
      }

      .cls-4 {
        fill: #d2704a;
      }
    </style>
  </defs>
  <g id="Layer_1-2" data-name="Layer 1">
    <g>
      <path class="cls-4" d="m73.89,83.64c.4-4.59,1.81-16.36,8.5-29.89,0,0,8.34-16.87,23.56-29.55,3.32-2.77,7.02-5.36,7.29-5.55,0,0,8.23-5.75,16.33-9.5,22.29-10.32,47.18-7.19,47.18-7.19,19.1,2.4,32,10.54,39.18,15.19,8.29,5.37,22.48,14.54,30.84,32.13,5.98,12.57,6.28,23.74,6.5,31.97.17,6.33.4,19.51-5.53,35.03-2.4,6.27-11.65,30.5-36.82,43.77-11.49,6.06-22.62,7.89-27.34,8.63-2.49.39-12.33,1.83-25.26.64-5.26-.48-13.08-1.59-22.13-4.39-7.99-2.47-22.72-7.21-36.64-19.91-2.64-2.41-10.99-10.34-17.67-23.02-2.3-4.37-5.76-11.06-7.44-20.58-1.38-7.85-.9-13.95-.57-17.78Z"/>
      <path class="cls-4" d="m75.39,83.64c.76-8.72,3.06-17.38,6.56-25.39,2.25-5.14,5.13-9.94,8.35-14.53,6.09-8.7,13.44-16.3,22.03-22.57,6.59-4.8,13.8-9.16,21.39-12.15,9.76-3.85,20.26-5.63,30.71-5.94,5.35-.16,10.69.03,15.97.95,9.65,1.68,18.88,5.1,27.4,9.91,5.92,3.34,11.75,7.11,17.13,11.27,7.65,5.91,14.27,13.13,18.93,21.65,5.31,9.72,7.44,20.37,7.84,31.35.3,8.37.09,16.66-1.63,24.89-1.45,6.93-3.82,13.71-6.78,19.97-7.39,15.59-19.27,28.93-34.87,36.61-16.24,8-35.12,9.99-52.93,7.87-9.36-1.11-18.57-3.57-27.38-6.91-9.93-3.76-19.23-9.21-27.13-16.33-5.9-5.32-10.97-11.55-15.11-18.32-5.38-8.8-9.42-18.44-10.51-28.77-.48-4.52-.36-9.04.03-13.55.17-1.92-2.84-1.91-3,0-.93,10.81.36,21.5,4.57,31.55,3.81,9.07,9.15,17.54,15.67,24.91,6.12,6.91,13.44,12.74,21.48,17.27,7.82,4.41,16.33,7.58,24.97,9.96,17.58,4.84,36.51,5.36,54.24.94,11.15-2.78,21.64-7.76,30.55-15.04,6.87-5.62,12.67-12.5,17.32-20.05,8.28-13.44,13.1-29.03,13.6-44.81.28-8.71-.07-17.71-1.99-26.23-2.51-11.15-8.05-21.44-15.73-29.87-5.64-6.2-12.35-11.2-19.35-15.75-6.66-4.33-13.5-8.25-20.94-11.1S181.77.73,173.97.22c-8.34-.55-16.79-.03-25.01,1.43-5.77,1.03-11.45,2.58-16.88,4.8s-10.44,5.03-15.34,8.12c-7.21,4.55-13.95,9.85-19.76,16.11s-10.67,12.92-14.74,20.19c-3.98,7.1-6.72,15.01-8.39,22.95-.68,3.24-1.17,6.53-1.46,9.83-.17,1.92,2.83,1.91,3,0Z"/>
    </g>
    <path class="cls-1" d="m99.85,27.36c6.93-6.55,16.28-13.64,28.31-19.08,4.52-2.04,12.44-5.56,23.52-7.24,9.51-1.44,16.99-.87,20.98-.54,7.74.64,13.1,2.01,19.36,3.62,8.14,2.09,11.93,3.8,15.42,6.53,1.99,1.56,3.44,3.1,4.38,4.21-4.67,2.42-11.33,5.65-19.55,8.91-9.78,3.89-24.26,9.63-40.06,11.47-9.72,1.13-28.62,1.79-52.37-7.87Z"/>
    <path class="cls-1" d="m98.67,144.19c25.95-2.57,52.16-5.19,76.84-13.51,5.04-1.7,10-3.63,15.04-5.36,19.77-6.76,40.67-10.28,59.78-18.7-1.59,3.51-3.79,6.76-6.47,9.55-4.16,4.33-9.37,7.5-14.58,10.51-22.59,13.05-46.74,24.18-72.52,28.6-8.13,1.39-16.36,2.11-24.58,2.83-1.69.15-3.39.29-5.07.09-1.86-.23-3.64-.89-5.39-1.54-8.55-3.17-17.33-6.47-24.12-12.52"/>
    <path class="cls-2" d="m77.25,89.08c.01-8.21.03-16.42.04-24.62-16.9,4.51-33.17,11.36-48.2,20.3C15.71,92.7,2.31,103.92.2,119.33c-.31,2.28-.34,4.68.63,6.77,1.31,2.81,4.18,4.52,6.95,5.91,20.42,10.25,43.87,12.46,66.71,13.04,39.2.99,79-2.44,115.9-15.71,10.88-3.91,21.45-8.66,32.33-12.57,17.99-6.47,36.77-10.65,54.57-17.62,17.8-6.97,35.05-17.2,45.94-32.91,4.29-6.19,7.38-14.89,2.84-20.89-2.4-3.16-6.34-4.68-10.1-5.95-27.19-9.13-56.23-12.67-84.82-10.36,4.29,8.5,9.09,17.54,17.56,21.9,6.27,3.22,14.57,3.99,18.1,10.09,3.87,6.68-.77,15.08-6.12,20.66-4.38,4.57-9.35,8.6-14.95,11.55-10.31,5.43-22.17,6.94-33.36,10.23-12.17,3.58-23.6,9.29-35.67,13.21-16.18,5.26-33.22,7.21-50.12,9.13-21.76,2.48-44.88,4.74-64.62-4.76-5.93-2.86-11.92-7.62-12.39-14.19-.44-6.07,4.24-11.57,9.79-14.06,5.55-2.49,11.83-2.62,17.92-2.71"/>
    <path class="cls-3" d="m76.19,89.82c.54-5.12,1.07-10.24,1.61-15.37-15.15,6.39-26.16,13.57-33.39,18.97-2.31,1.73-10.76,8.17-15.16,18.32-1.87,4.3-2.37,7.66-.97,10.27,1.11,2.07,3.24,3.36,5.33,4.42,17.75,9.04,38.58,8.93,58.49,8.61,11.2-.18,22.41-.35,33.55-1.44,14.15-1.38,28.11-4.21,42.05-7.03,23.29-4.72,46.76-9.5,68.62-18.82,10.31-4.39,20.18-9.77,29.87-15.4,14.01-8.14,28.48-17.75,34.8-32.67,1.3-3.08,2.15-6.86.21-9.59-1.11-1.56-2.92-2.44-4.67-3.21-18.7-8.21-39.75-10.96-59.93-7.82,1.22,3.32,3.45,7.56,7.72,10.02,3.65,2.1,5.88,1.22,11.4,2.71,2.61.71,12.36,3.36,14.47,8.86,2.48,6.47-6.21,15.28-9.59,18.63-15.77,15.65-34.97,20.73-49.57,24.6-67.64,17.94-65.31,17.65-68.38,18.09-8.75,1.26-73.21,10.16-82.85-8.32-.74-1.41-2.8-5.36-1.6-9.46,1.63-5.6,9.3-11.34,14.81-13.15.72-.24,2.1-.64,3.08-1.9,1.22-1.58.92-3.37.92-6.98,0-1.6.06-3.95.36-6.84"/>
    <path class="cls-1" d="m73.59,94.66c-1.04-1.51-2.08-4.14,1.2-20.06,1.67-8.08,3.45-14.76,4.85-19.59,34.47,8.99,72.16,7.15,105.4-5.15,4.82-1.78,9.56-3.79,14-6.28,1.48-.83,14.42-9.08,23.92-16.43.68-.53,2.38-1.85,4.59-1.79,2.62.07,4.52,2.03,5.92,3.51,12.63,13.4,13.82,19.36,16.1,22.37.19.25.84,1.07.77,2.12-.04.59-.37,1.13-.71,1.64-5.78,8.72-15.51,14.63-25.66,18.75-10.15,4.12-20.95,6.7-31.26,10.48-11.43,4.19-22.33,9.86-34.36,12.26-4.34.86-9.88,1.15-20.96,1.81-14.26.86-23,.73-39.9.42-17.93-.32-21.72-.91-23.89-4.06Z"/>
  </g>
</svg>